<svg xmlns="http://www.w3.org/2000/svg" viewBox="0 0 200 200" width="200" height="200"><rect x="0" y="0" width="200" height="200" fill="#f6f8fa"/><rect x="8" y="8" width="184" height="184" fill="none" stroke="#d0d7de" stroke-dasharray="4 3"/><line x1="100.0" y1="175.0" x2="136.2" y2="154.1" stroke="#c0392b" stroke-width="3.00" stroke-linecap="round"/><line x1="136.2" y1="154.1" x2="148.5" y2="127.5" stroke="#c0392b" stroke-width="2.10" stroke-linecap="round"/><line x1="148.5" y1="127.5" x2="144.8" y2="107.4" stroke="#c0392b" stroke-width="1.47" stroke-linecap="round"/><line x1="144.8" y1="107.4" x2="134.5" y2="97.4" stroke="#c0392b" stroke-width="1.03" stroke-linecap="round"/><line x1="144.8" y1="107.4" x2="150.8" y2="94.4" stroke="#c0392b" stroke-width="1.03" stroke-linecap="round"/><line x1="148.5" y1="127.5" x2="166.2" y2="117.3" stroke="#c0392b" stroke-width="1.47" stroke-linecap="round"/><line x1="166.2" y1="117.3" x2="172.2" y2="104.3" stroke="#c0392b" stroke-width="1.03" stroke-linecap="round"/><line x1="166.2" y1="117.3" x2="180.5" y2="118.6" stroke="#c0392b" stroke-width="1.03" stroke-linecap="round"/><line x1="136.2" y1="154.1" x2="165.3" y2="156.8" stroke="#c0392b" stroke-width="2.10" stroke-linecap="round"/><line x1="165.3" y1="156.8" x2="183.1" y2="146.5" stroke="#c0392b" stroke-width="1.47" stroke-linecap="round"/><line x1="183.1" y1="146.5" x2="189.1" y2="133.5" stroke="#c0392b" stroke-width="1.03" stroke-linecap="round"/><line x1="183.1" y1="146.5" x2="197.4" y2="147.8" stroke="#c0392b" stroke-width="1.03" stroke-linecap="round"/><line x1="165.3" y1="156.8" x2="180.9" y2="170.0" stroke="#c0392b" stroke-width="1.47" stroke-linecap="round"/><line x1="180.9" y1="170.0" x2="195.2" y2="171.3" stroke="#c0392b" stroke-width="1.03" stroke-linecap="round"/><line x1="180.9" y1="170.0" x2="184.5" y2="183.9" stroke="#c0392b" stroke-width="1.03" stroke-linecap="round"/><line x1="100.0" y1="175.0" x2="100.0" y2="133.2" stroke="#c0392b" stroke-width="3.00" stroke-linecap="round"/><line x1="100.0" y1="133.2" x2="83.1" y2="109.3" stroke="#c0392b" stroke-width="2.10" stroke-linecap="round"/><line x1="83.1" y1="109.3" x2="63.8" y2="102.4" stroke="#c0392b" stroke-width="1.47" stroke-linecap="round"/><line x1="63.8" y1="102.4" x2="50.0" y2="106.3" stroke="#c0392b" stroke-width="1.03" stroke-linecap="round"/><line x1="63.8" y1="102.4" x2="55.6" y2="90.7" stroke="#c0392b" stroke-width="1.03" stroke-linecap="round"/><line x1="83.1" y1="109.3" x2="83.1" y2="88.8" stroke="#c0392b" stroke-width="1.47" stroke-linecap="round"/><line x1="83.1" y1="88.8" x2="74.9" y2="77.1" stroke="#c0392b" stroke-width="1.03" stroke-linecap="round"/><line x1="83.1" y1="88.8" x2="91.4" y2="77.1" stroke="#c0392b" stroke-width="1.03" stroke-linecap="round"/><line x1="100.0" y1="133.2" x2="116.9" y2="109.3" stroke="#c0392b" stroke-width="2.10" stroke-linecap="round"/><line x1="116.9" y1="109.3" x2="116.9" y2="88.8" stroke="#c0392b" stroke-width="1.47" stroke-linecap="round"/><line x1="116.9" y1="88.8" x2="108.6" y2="77.1" stroke="#c0392b" stroke-width="1.03" stroke-linecap="round"/><line x1="116.9" y1="88.8" x2="125.1" y2="77.1" stroke="#c0392b" stroke-width="1.03" stroke-linecap="round"/><line x1="116.9" y1="109.3" x2="136.2" y2="102.4" stroke="#c0392b" stroke-width="1.47" stroke-linecap="round"/><line x1="136.2" y1="102.4" x2="144.4" y2="90.7" stroke="#c0392b" stroke-width="1.03" stroke-linecap="round"/><line x1="136.2" y1="102.4" x2="150.0" y2="106.3" stroke="#c0392b" stroke-width="1.03" stroke-linecap="round"/><line x1="100.0" y1="175.0" x2="63.8" y2="154.1" stroke="#c0392b" stroke-width="3.00" stroke-linecap="round"/><line x1="63.8" y1="154.1" x2="34.7" y2="156.8" stroke="#c0392b" stroke-width="2.10" stroke-linecap="round"/><line x1="34.7" y1="156.8" x2="19.1" y2="170.0" stroke="#c0392b" stroke-width="1.47" stroke-linecap="round"/><line x1="19.1" y1="170.0" x2="15.5" y2="183.9" stroke="#c0392b" stroke-width="1.03" stroke-linecap="round"/><line x1="19.1" y1="170.0" x2="4.8" y2="171.3" stroke="#c0392b" stroke-width="1.03" stroke-linecap="round"/><line x1="34.7" y1="156.8" x2="16.9" y2="146.5" stroke="#c0392b" stroke-width="1.47" stroke-linecap="round"/><line x1="16.9" y1="146.5" x2="2.6" y2="147.8" stroke="#c0392b" stroke-width="1.03" stroke-linecap="round"/><line x1="16.9" y1="146.5" x2="10.9" y2="133.5" stroke="#c0392b" stroke-width="1.03" stroke-linecap="round"/><line x1="63.8" y1="154.1" x2="51.5" y2="127.5" stroke="#c0392b" stroke-width="2.10" stroke-linecap="round"/><line x1="51.5" y1="127.5" x2="33.8" y2="117.3" stroke="#c0392b" stroke-width="1.47" stroke-linecap="round"/><line x1="33.8" y1="117.3" x2="19.5" y2="118.6" stroke="#c0392b" stroke-width="1.03" stroke-linecap="round"/><line x1="33.8" y1="117.3" x2="27.8" y2="104.3" stroke="#c0392b" stroke-width="1.03" stroke-linecap="round"/><line x1="51.5" y1="127.5" x2="55.2" y2="107.4" stroke="#c0392b" stroke-width="1.47" stroke-linecap="round"/><line x1="55.2" y1="107.4" x2="49.2" y2="94.4" stroke="#c0392b" stroke-width="1.03" stroke-linecap="round"/><line x1="55.2" y1="107.4" x2="65.5" y2="97.4" stroke="#c0392b" stroke-width="1.03" stroke-linecap="round"/><text x="6" y="194" font-family="sans-serif" font-size="9" fill="#57606a">leaf-vein heat bridge</text></svg>