<svg xmlns="http://www.w3.org/2000/svg" viewBox="0 0 200 200" width="200" height="200"><rect x="0" y="0" width="200" height="200" fill="#f6f8fa"/><circle cx="100" cy="100" r="92" fill="none" stroke="#d0d7de" stroke-dasharray="4 3"/><line x1="100.0" y1="175.0" x2="100.0" y2="133.2" stroke="#c0392b" stroke-width="3.00" stroke-linecap="round"/><line x1="100.0" y1="133.2" x2="86.2" y2="107.4" stroke="#c0392b" stroke-width="2.10" stroke-linecap="round"/><line x1="86.2" y1="107.4" x2="69.1" y2="96.0" stroke="#c0392b" stroke-width="1.47" stroke-linecap="round"/><line x1="69.1" y1="96.0" x2="54.9" y2="94.7" stroke="#c0392b" stroke-width="1.03" stroke-linecap="round"/><line x1="54.9" y1="94.7" x2="45.6" y2="98.5" stroke="#c0392b" stroke-width="0.72" stroke-linecap="round"/><line x1="54.9" y1="94.7" x2="46.5" y2="89.1" stroke="#c0392b" stroke-width="0.72" stroke-linecap="round"/><line x1="69.1" y1="96.0" x2="62.4" y2="83.4" stroke="#c0392b" stroke-width="1.03" stroke-linecap="round"/><line x1="62.4" y1="83.4" x2="54.0" y2="77.8" stroke="#c0392b" stroke-width="0.72" stroke-linecap="round"/><line x1="62.4" y1="83.4" x2="62.4" y2="73.4" stroke="#c0392b" stroke-width="0.72" stroke-linecap="round"/><line x1="86.2" y1="107.4" x2="86.2" y2="86.9" stroke="#c0392b" stroke-width="1.47" stroke-linecap="round"/><line x1="86.2" y1="86.9" x2="79.4" y2="74.3" stroke="#c0392b" stroke-width="1.03" stroke-linecap="round"/><line x1="79.4" y1="74.3" x2="71.1" y2="68.7" stroke="#c0392b" stroke-width="0.72" stroke-linecap="round"/><line x1="79.4" y1="74.3" x2="79.4" y2="64.2" stroke="#c0392b" stroke-width="0.72" stroke-linecap="round"/><line x1="86.2" y1="86.9" x2="93.0" y2="74.3" stroke="#c0392b" stroke-width="1.03" stroke-linecap="round"/><line x1="93.0" y1="74.3" x2="93.0" y2="64.2" stroke="#c0392b" stroke-width="0.72" stroke-linecap="round"/><line x1="93.0" y1="74.3" x2="101.3" y2="68.7" stroke="#c0392b" stroke-width="0.72" stroke-linecap="round"/><line x1="100.0" y1="133.2" x2="113.8" y2="107.4" stroke="#c0392b" stroke-width="2.10" stroke-linecap="round"/><line x1="113.8" y1="107.4" x2="113.8" y2="86.9" stroke="#c0392b" stroke-width="1.47" stroke-linecap="round"/><line x1="113.8" y1="86.9" x2="107.0" y2="74.3" stroke="#c0392b" stroke-width="1.03" stroke-linecap="round"/><line x1="107.0" y1="74.3" x2="98.7" y2="68.7" stroke="#c0392b" stroke-width="0.72" stroke-linecap="round"/><line x1="107.0" y1="74.3" x2="107.0" y2="64.2" stroke="#c0392b" stroke-width="0.72" stroke-linecap="round"/><line x1="113.8" y1="86.9" x2="120.6" y2="74.3" stroke="#c0392b" stroke-width="1.03" stroke-linecap="round"/><line x1="120.6" y1="74.3" x2="120.6" y2="64.2" stroke="#c0392b" stroke-width="0.72" stroke-linecap="round"/><line x1="120.6" y1="74.3" x2="128.9" y2="68.7" stroke="#c0392b" stroke-width="0.72" stroke-linecap="round"/><line x1="113.8" y1="107.4" x2="130.9" y2="96.0" stroke="#c0392b" stroke-width="1.47" stroke-linecap="round"/><line x1="130.9" y1="96.0" x2="137.6" y2="83.4" stroke="#c0392b" stroke-width="1.03" stroke-linecap="round"/><line x1="137.6" y1="83.4" x2="137.6" y2="73.4" stroke="#c0392b" stroke-width="0.72" stroke-linecap="round"/><line x1="137.6" y1="83.4" x2="146.0" y2="77.8" stroke="#c0392b" stroke-width="0.72" stroke-linecap="round"/><line x1="130.9" y1="96.0" x2="145.1" y2="94.7" stroke="#c0392b" stroke-width="1.03" stroke-linecap="round"/><line x1="145.1" y1="94.7" x2="153.5" y2="89.1" stroke="#c0392b" stroke-width="0.72" stroke-linecap="round"/><line x1="145.1" y1="94.7" x2="154.4" y2="98.5" stroke="#c0392b" stroke-width="0.72" stroke-linecap="round"/><text x="6" y="194" font-family="sans-serif" font-size="9" fill="#57606a">leaf-vein heat bridge</text></svg>