<svg xmlns="http://www.w3.org/2000/svg" viewBox="0 0 200 200" width="200" height="200"><rect x="0" y="0" width="200" height="200" fill="#f6f8fa"/><rect x="8" y="8" width="184" height="184" fill="none" stroke="#d0d7de" stroke-dasharray="4 3"/><line x1="100.0" y1="175.0" x2="136.2" y2="154.1" stroke="#c0392b" stroke-width="3.00" stroke-linecap="round"/><line x1="136.2" y1="154.1" x2="153.1" y2="130.2" stroke="#c0392b" stroke-width="2.10" stroke-linecap="round"/><line x1="153.1" y1="130.2" x2="156.9" y2="110.1" stroke="#c0392b" stroke-width="1.47" stroke-linecap="round"/><line x1="156.9" y1="110.1" x2="153.5" y2="96.2" stroke="#c0392b" stroke-width="1.03" stroke-linecap="round"/><line x1="153.5" y1="96.2" x2="147.2" y2="88.3" stroke="#c0392b" stroke-width="0.72" stroke-linecap="round"/><line x1="153.5" y1="96.2" x2="155.4" y2="86.3" stroke="#c0392b" stroke-width="0.72" stroke-linecap="round"/><line x1="156.9" y1="110.1" x2="165.2" y2="98.4" stroke="#c0392b" stroke-width="1.03" stroke-linecap="round"/><line x1="165.2" y1="98.4" x2="167.1" y2="88.6" stroke="#c0392b" stroke-width="0.72" stroke-linecap="round"/><line x1="165.2" y1="98.4" x2="173.9" y2="93.4" stroke="#c0392b" stroke-width="0.72" stroke-linecap="round"/><line x1="153.1" y1="130.2" x2="170.9" y2="120.0" stroke="#c0392b" stroke-width="1.47" stroke-linecap="round"/><line x1="170.9" y1="120.0" x2="179.2" y2="108.3" stroke="#c0392b" stroke-width="1.03" stroke-linecap="round"/><line x1="179.2" y1="108.3" x2="181.0" y2="98.4" stroke="#c0392b" stroke-width="0.72" stroke-linecap="round"/><line x1="179.2" y1="108.3" x2="187.9" y2="103.3" stroke="#c0392b" stroke-width="0.72" stroke-linecap="round"/><line x1="170.9" y1="120.0" x2="185.1" y2="118.7" stroke="#c0392b" stroke-width="1.03" stroke-linecap="round"/><line x1="185.1" y1="118.7" x2="193.8" y2="113.6" stroke="#c0392b" stroke-width="0.72" stroke-linecap="round"/><line x1="185.1" y1="118.7" x2="194.6" y2="122.0" stroke="#c0392b" stroke-width="0.72" stroke-linecap="round"/><line x1="136.2" y1="154.1" x2="165.3" y2="151.4" stroke="#c0392b" stroke-width="2.10" stroke-linecap="round"/><line x1="165.3" y1="151.4" x2="183.1" y2="141.1" stroke="#c0392b" stroke-width="1.47" stroke-linecap="round"/><line x1="183.1" y1="141.1" x2="191.4" y2="129.4" stroke="#c0392b" stroke-width="1.03" stroke-linecap="round"/><line x1="191.4" y1="129.4" x2="193.2" y2="119.6" stroke="#c0392b" stroke-width="0.72" stroke-linecap="round"/><line x1="191.4" y1="129.4" x2="200.1" y2="124.4" stroke="#c0392b" stroke-width="0.72" stroke-linecap="round"/><line x1="183.1" y1="141.1" x2="197.3" y2="139.8" stroke="#c0392b" stroke-width="1.03" stroke-linecap="round"/><line x1="197.3" y1="139.8" x2="206.0" y2="134.8" stroke="#c0392b" stroke-width="0.72" stroke-linecap="round"/><line x1="197.3" y1="139.8" x2="206.8" y2="143.1" stroke="#c0392b" stroke-width="0.72" stroke-linecap="round"/><line x1="165.3" y1="151.4" x2="184.7" y2="158.1" stroke="#c0392b" stroke-width="1.47" stroke-linecap="round"/><line x1="184.7" y1="158.1" x2="198.9" y2="156.8" stroke="#c0392b" stroke-width="1.03" stroke-linecap="round"/><line x1="198.9" y1="156.8" x2="207.6" y2="151.8" stroke="#c0392b" stroke-width="0.72" stroke-linecap="round"/><line x1="198.9" y1="156.8" x2="208.4" y2="160.1" stroke="#c0392b" stroke-width="0.72" stroke-linecap="round"/><line x1="184.7" y1="158.1" x2="195.0" y2="168.1" stroke="#c0392b" stroke-width="1.03" stroke-linecap="round"/><line x1="195.0" y1="168.1" x2="204.5" y2="171.4" stroke="#c0392b" stroke-width="0.72" stroke-linecap="round"/><line x1="195.0" y1="168.1" x2="198.7" y2="177.4" stroke="#c0392b" stroke-width="0.72" stroke-linecap="round"/><line x1="100.0" y1="175.0" x2="63.8" y2="154.1" stroke="#c0392b" stroke-width="3.00" stroke-linecap="round"/><line x1="63.8" y1="154.1" x2="34.7" y2="151.4" stroke="#c0392b" stroke-width="2.10" stroke-linecap="round"/><line x1="34.7" y1="151.4" x2="15.3" y2="158.1" stroke="#c0392b" stroke-width="1.47" stroke-linecap="round"/><line x1="15.3" y1="158.1" x2="5.0" y2="168.1" stroke="#c0392b" stroke-width="1.03" stroke-linecap="round"/><line x1="5.0" y1="168.1" x2="1.3" y2="177.4" stroke="#c0392b" stroke-width="0.72" stroke-linecap="round"/><line x1="5.0" y1="168.1" x2="-4.5" y2="171.4" stroke="#c0392b" stroke-width="0.72" stroke-linecap="round"/><line x1="15.3" y1="158.1" x2="1.1" y2="156.8" stroke="#c0392b" stroke-width="1.03" stroke-linecap="round"/><line x1="1.1" y1="156.8" x2="-8.4" y2="160.1" stroke="#c0392b" stroke-width="0.72" stroke-linecap="round"/><line x1="1.1" y1="156.8" x2="-7.6" y2="151.8" stroke="#c0392b" stroke-width="0.72" stroke-linecap="round"/><line x1="34.7" y1="151.4" x2="16.9" y2="141.1" stroke="#c0392b" stroke-width="1.47" stroke-linecap="round"/><line x1="16.9" y1="141.1" x2="2.7" y2="139.8" stroke="#c0392b" stroke-width="1.03" stroke-linecap="round"/><line x1="2.7" y1="139.8" x2="-6.8" y2="143.1" stroke="#c0392b" stroke-width="0.72" stroke-linecap="round"/><line x1="2.7" y1="139.8" x2="-6.0" y2="134.8" stroke="#c0392b" stroke-width="0.72" stroke-linecap="round"/><line x1="16.9" y1="141.1" x2="8.6" y2="129.4" stroke="#c0392b" stroke-width="1.03" stroke-linecap="round"/><line x1="8.6" y1="129.4" x2="-0.1" y2="124.4" stroke="#c0392b" stroke-width="0.72" stroke-linecap="round"/><line x1="8.6" y1="129.4" x2="6.8" y2="119.6" stroke="#c0392b" stroke-width="0.72" stroke-linecap="round"/><line x1="63.8" y1="154.1" x2="46.9" y2="130.2" stroke="#c0392b" stroke-width="2.10" stroke-linecap="round"/><line x1="46.9" y1="130.2" x2="29.1" y2="120.0" stroke="#c0392b" stroke-width="1.47" stroke-linecap="round"/><line x1="29.1" y1="120.0" x2="14.9" y2="118.7" stroke="#c0392b" stroke-width="1.03" stroke-linecap="round"/><line x1="14.9" y1="118.7" x2="5.4" y2="122.0" stroke="#c0392b" stroke-width="0.72" stroke-linecap="round"/><line x1="14.9" y1="118.7" x2="6.2" y2="113.6" stroke="#c0392b" stroke-width="0.72" stroke-linecap="round"/><line x1="29.1" y1="120.0" x2="20.8" y2="108.3" stroke="#c0392b" stroke-width="1.03" stroke-linecap="round"/><line x1="20.8" y1="108.3" x2="12.1" y2="103.3" stroke="#c0392b" stroke-width="0.72" stroke-linecap="round"/><line x1="20.8" y1="108.3" x2="19.0" y2="98.4" stroke="#c0392b" stroke-width="0.72" stroke-linecap="round"/><line x1="46.9" y1="130.2" x2="43.1" y2="110.1" stroke="#c0392b" stroke-width="1.47" stroke-linecap="round"/><line x1="43.1" y1="110.1" x2="34.8" y2="98.4" stroke="#c0392b" stroke-width="1.03" stroke-linecap="round"/><line x1="34.8" y1="98.4" x2="26.1" y2="93.4" stroke="#c0392b" stroke-width="0.72" stroke-linecap="round"/><line x1="34.8" y1="98.4" x2="32.9" y2="88.6" stroke="#c0392b" stroke-width="0.72" stroke-linecap="round"/><line x1="43.1" y1="110.1" x2="46.5" y2="96.2" stroke="#c0392b" stroke-width="1.03" stroke-linecap="round"/><line x1="46.5" y1="96.2" x2="44.6" y2="86.3" stroke="#c0392b" stroke-width="0.72" stroke-linecap="round"/><line x1="46.5" y1="96.2" x2="52.8" y2="88.3" stroke="#c0392b" stroke-width="0.72" stroke-linecap="round"/><text x="6" y="194" font-family="sans-serif" font-size="9" fill="#57606a">leaf-vein heat bridge</text></svg>