<svg xmlns="http://www.w3.org/2000/svg" viewBox="0 0 200 200" width="200" height="200"><rect x="0" y="0" width="200" height="200" fill="#f6f8fa"/><rect x="8" y="8" width="184" height="184" fill="none" stroke="#d0d7de" stroke-dasharray="4 3"/><line x1="24.0" y1="20.0" x2="24.0" y2="180.0" stroke="#2980b9" stroke-width="1.5"/><line x1="32.0" y1="20.0" x2="32.0" y2="180.0" stroke="#2980b9" stroke-width="1.5"/><line x1="40.0" y1="20.0" x2="40.0" y2="180.0" stroke="#2980b9" stroke-width="1.5"/><line x1="48.0" y1="20.0" x2="48.0" y2="180.0" stroke="#2980b9" stroke-width="1.5"/><line x1="56.0" y1="20.0" x2="56.0" y2="180.0" stroke="#2980b9" stroke-width="1.5"/><line x1="64.0" y1="20.0" x2="64.0" y2="180.0" stroke="#2980b9" stroke-width="1.5"/><line x1="72.0" y1="20.0" x2="72.0" y2="180.0" stroke="#2980b9" stroke-width="1.5"/><line x1="80.0" y1="20.0" x2="80.0" y2="180.0" stroke="#2980b9" stroke-width="1.5"/><line x1="88.0" y1="20.0" x2="88.0" y2="180.0" stroke="#2980b9" stroke-width="1.5"/><line x1="96.0" y1="20.0" x2="96.0" y2="180.0" stroke="#2980b9" stroke-width="1.5"/><line x1="104.0" y1="20.0" x2="104.0" y2="180.0" stroke="#2980b9" stroke-width="1.5"/><line x1="112.0" y1="20.0" x2="112.0" y2="180.0" stroke="#2980b9" stroke-width="1.5"/><line x1="120.0" y1="20.0" x2="120.0" y2="180.0" stroke="#2980b9" stroke-width="1.5"/><line x1="128.0" y1="20.0" x2="128.0" y2="180.0" stroke="#2980b9" stroke-width="1.5"/><line x1="136.0" y1="20.0" x2="136.0" y2="180.0" stroke="#2980b9" stroke-width="1.5"/><line x1="144.0" y1="20.0" x2="144.0" y2="180.0" stroke="#2980b9" stroke-width="1.5"/><line x1="152.0" y1="20.0" x2="152.0" y2="180.0" stroke="#2980b9" stroke-width="1.5"/><line x1="160.0" y1="20.0" x2="160.0" y2="180.0" stroke="#2980b9" stroke-width="1.5"/><line x1="168.0" y1="20.0" x2="168.0" y2="180.0" stroke="#2980b9" stroke-width="1.5"/><line x1="176.0" y1="20.0" x2="176.0" y2="180.0" stroke="#2980b9" stroke-width="1.5"/><text x="6" y="194" font-family="sans-serif" font-size="9" fill="#57606a">parallel channel</text></svg>