<svg xmlns="http://www.w3.org/2000/svg" viewBox="0 0 200 200" width="200" height="200"><rect x="0" y="0" width="200" height="200" fill="#f6f8fa"/><circle cx="100" cy="100" r="92" fill="none" stroke="#d0d7de" stroke-dasharray="4 3"/><circle cx="27.3" cy="27.3" r="5.8" fill="#2980b9"/><circle cx="41.8" cy="27.3" r="5.8" fill="#2980b9"/><circle cx="56.4" cy="27.3" r="5.8" fill="#2980b9"/><circle cx="70.9" cy="27.3" r="5.8" fill="#2980b9"/><circle cx="85.5" cy="27.3" r="5.8" fill="#2980b9"/><circle cx="100.0" cy="27.3" r="5.8" fill="#2980b9"/><circle cx="114.5" cy="27.3" r="5.8" fill="#2980b9"/><circle cx="129.1" cy="27.3" r="5.8" fill="#2980b9"/><circle cx="143.6" cy="27.3" r="5.8" fill="#2980b9"/><circle cx="158.2" cy="27.3" r="5.8" fill="#2980b9"/><circle cx="172.7" cy="27.3" r="5.8" fill="#2980b9"/><circle cx="27.3" cy="41.8" r="5.8" fill="#2980b9"/><circle cx="41.8" cy="41.8" r="5.8" fill="#2980b9"/><circle cx="56.4" cy="41.8" r="5.8" fill="#2980b9"/><circle cx="70.9" cy="41.8" r="5.8" fill="#2980b9"/><circle cx="85.5" cy="41.8" r="5.8" fill="#2980b9"/><circle cx="100.0" cy="41.8" r="5.8" fill="#2980b9"/><circle cx="114.5" cy="41.8" r="5.8" fill="#2980b9"/><circle cx="129.1" cy="41.8" r="5.8" fill="#2980b9"/><circle cx="143.6" cy="41.8" r="5.8" fill="#2980b9"/><circle cx="158.2" cy="41.8" r="5.8" fill="#2980b9"/><circle cx="172.7" cy="41.8" r="5.8" fill="#2980b9"/><circle cx="27.3" cy="56.4" r="5.8" fill="#2980b9"/><circle cx="41.8" cy="56.4" r="5.8" fill="#2980b9"/><circle cx="56.4" cy="56.4" r="5.8" fill="#2980b9"/><circle cx="70.9" cy="56.4" r="5.8" fill="#2980b9"/><circle cx="85.5" cy="56.4" r="5.8" fill="#2980b9"/><circle cx="100.0" cy="56.4" r="5.8" fill="#2980b9"/><circle cx="114.5" cy="56.4" r="5.8" fill="#2980b9"/><circle cx="129.1" cy="56.4" r="5.8" fill="#2980b9"/><circle cx="143.6" cy="56.4" r="5.8" fill="#2980b9"/><circle cx="158.2" cy="56.4" r="5.8" fill="#2980b9"/><circle cx="172.7" cy="56.4" r="5.8" fill="#2980b9"/><circle cx="27.3" cy="70.9" r="5.8" fill="#2980b9"/><circle cx="41.8" cy="70.9" r="5.8" fill="#2980b9"/><circle cx="56.4" cy="70.9" r="5.8" fill="#2980b9"/><circle cx="70.9" cy="70.9" r="5.8" fill="#2980b9"/><circle cx="85.5" cy="70.9" r="5.8" fill="#2980b9"/><circle cx="100.0" cy="70.9" r="5.8" fill="#2980b9"/><circle cx="114.5" cy="70.9" r="5.8" fill="#2980b9"/><circle cx="129.1" cy="70.9" r="5.8" fill="#2980b9"/><circle cx="143.6" cy="70.9" r="5.8" fill="#2980b9"/><circle cx="158.2" cy="70.9" r="5.8" fill="#2980b9"/><circle cx="172.7" cy="70.9" r="5.8" fill="#2980b9"/><circle cx="27.3" cy="85.5" r="5.8" fill="#2980b9"/><circle cx="41.8" cy="85.5" r="5.8" fill="#2980b9"/><circle cx="56.4" cy="85.5" r="5.8" fill="#2980b9"/><circle cx="70.9" cy="85.5" r="5.8" fill="#2980b9"/><circle cx="85.5" cy="85.5" r="5.8" fill="#2980b9"/><circle cx="100.0" cy="85.5" r="5.8" fill="#2980b9"/><circle cx="114.5" cy="85.5" r="5.8" fill="#2980b9"/><circle cx="129.1" cy="85.5" r="5.8" fill="#2980b9"/><circle cx="143.6" cy="85.5" r="5.8" fill="#2980b9"/><circle cx="158.2" cy="85.5" r="5.8" fill="#2980b9"/><circle cx="172.7" cy="85.5" r="5.8" fill="#2980b9"/><circle cx="27.3" cy="100.0" r="5.8" fill="#2980b9"/><circle cx="41.8" cy="100.0" r="5.8" fill="#2980b9"/><circle cx="56.4" cy="100.0" r="5.8" fill="#2980b9"/><circle cx="70.9" cy="100.0" r="5.8" fill="#2980b9"/><circle cx="85.5" cy="100.0" r="5.8" fill="#2980b9"/><circle cx="100.0" cy="100.0" r="5.8" fill="#2980b9"/><circle cx="114.5" cy="100.0" r="5.8" fill="#2980b9"/><circle cx="129.1" cy="100.0" r="5.8" fill="#2980b9"/><circle cx="143.6" cy="100.0" r="5.8" fill="#2980b9"/><circle cx="158.2" cy="100.0" r="5.8" fill="#2980b9"/><circle cx="172.7" cy="100.0" r="5.8" fill="#2980b9"/><circle cx="27.3" cy="114.5" r="5.8" fill="#2980b9"/><circle cx="41.8" cy="114.5" r="5.8" fill="#2980b9"/><circle cx="56.4" cy="114.5" r="5.8" fill="#2980b9"/><circle cx="70.9" cy="114.5" r="5.8" fill="#2980b9"/><circle cx="85.5" cy="114.5" r="5.8" fill="#2980b9"/><circle cx="100.0" cy="114.5" r="5.8" fill="#2980b9"/><circle cx="114.5" cy="114.5" r="5.8" fill="#2980b9"/><circle cx="129.1" cy="114.5" r="5.8" fill="#2980b9"/><circle cx="143.6" cy="114.5" r="5.8" fill="#2980b9"/><circle cx="158.2" cy="114.5" r="5.8" fill="#2980b9"/><circle cx="172.7" cy="114.5" r="5.8" fill="#2980b9"/><circle cx="27.3" cy="129.1" r="5.8" fill="#2980b9"/><circle cx="41.8" cy="129.1" r="5.8" fill="#2980b9"/><circle cx="56.4" cy="129.1" r="5.8" fill="#2980b9"/><circle cx="70.9" cy="129.1" r="5.8" fill="#2980b9"/><circle cx="85.5" cy="129.1" r="5.8" fill="#2980b9"/><circle cx="100.0" cy="129.1" r="5.8" fill="#2980b9"/><circle cx="114.5" cy="129.1" r="5.8" fill="#2980b9"/><circle cx="129.1" cy="129.1" r="5.8" fill="#2980b9"/><circle cx="143.6" cy="129.1" r="5.8" fill="#2980b9"/><circle cx="158.2" cy="129.1" r="5.8" fill="#2980b9"/><circle cx="172.7" cy="129.1" r="5.8" fill="#2980b9"/><circle cx="27.3" cy="143.6" r="5.8" fill="#2980b9"/><circle cx="41.8" cy="143.6" r="5.8" fill="#2980b9"/><circle cx="56.4" cy="143.6" r="5.8" fill="#2980b9"/><circle cx="70.9" cy="143.6" r="5.8" fill="#2980b9"/><circle cx="85.5" cy="143.6" r="5.8" fill="#2980b9"/><circle cx="100.0" cy="143.6" r="5.8" fill="#2980b9"/><circle cx="114.5" cy="143.6" r="5.8" fill="#2980b9"/><circle cx="129.1" cy="143.6" r="5.8" fill="#2980b9"/><circle cx="143.6" cy="143.6" r="5.8" fill="#2980b9"/><circle cx="158.2" cy="143.6" r="5.8" fill="#2980b9"/><circle cx="172.7" cy="143.6" r="5.8" fill="#2980b9"/><circle cx="27.3" cy="158.2" r="5.8" fill="#2980b9"/><circle cx="41.8" cy="158.2" r="5.8" fill="#2980b9"/><circle cx="56.4" cy="158.2" r="5.8" fill="#2980b9"/><circle cx="70.9" cy="158.2" r="5.8" fill="#2980b9"/><circle cx="85.5" cy="158.2" r="5.8" fill="#2980b9"/><circle cx="100.0" cy="158.2" r="5.8" fill="#2980b9"/><circle cx="114.5" cy="158.2" r="5.8" fill="#2980b9"/><circle cx="129.1" cy="158.2" r="5.8" fill="#2980b9"/><circle cx="143.6" cy="158.2" r="5.8" fill="#2980b9"/><circle cx="158.2" cy="158.2" r="5.8" fill="#2980b9"/><circle cx="172.7" cy="158.2" r="5.8" fill="#2980b9"/><circle cx="27.3" cy="172.7" r="5.8" fill="#2980b9"/><circle cx="41.8" cy="172.7" r="5.8" fill="#2980b9"/><circle cx="56.4" cy="172.7" r="5.8" fill="#2980b9"/><circle cx="70.9" cy="172.7" r="5.8" fill="#2980b9"/><circle cx="85.5" cy="172.7" r="5.8" fill="#2980b9"/><circle cx="100.0" cy="172.7" r="5.8" fill="#2980b9"/><circle cx="114.5" cy="172.7" r="5.8" fill="#2980b9"/><circle cx="129.1" cy="172.7" r="5.8" fill="#2980b9"/><circle cx="143.6" cy="172.7" r="5.8" fill="#2980b9"/><circle cx="158.2" cy="172.7" r="5.8" fill="#2980b9"/><text x="6" y="194" font-family="sans-serif" font-size="9" fill="#57606a">pin-fin array</text></svg>