<svg xmlns="http://www.w3.org/2000/svg" viewBox="0 0 200 200" width="200" height="200"><rect x="0" y="0" width="200" height="200" fill="#f6f8fa"/><rect x="8" y="8" width="184" height="184" fill="none" stroke="#d0d7de" stroke-dasharray="4 3"/><line x1="23.3" y1="20.0" x2="23.3" y2="180.0" stroke="#2980b9" stroke-width="1.5"/><line x1="30.0" y1="20.0" x2="30.0" y2="180.0" stroke="#2980b9" stroke-width="1.5"/><line x1="36.7" y1="20.0" x2="36.7" y2="180.0" stroke="#2980b9" stroke-width="1.5"/><line x1="43.3" y1="20.0" x2="43.3" y2="180.0" stroke="#2980b9" stroke-width="1.5"/><line x1="50.0" y1="20.0" x2="50.0" y2="180.0" stroke="#2980b9" stroke-width="1.5"/><line x1="56.7" y1="20.0" x2="56.7" y2="180.0" stroke="#2980b9" stroke-width="1.5"/><line x1="63.3" y1="20.0" x2="63.3" y2="180.0" stroke="#2980b9" stroke-width="1.5"/><line x1="70.0" y1="20.0" x2="70.0" y2="180.0" stroke="#2980b9" stroke-width="1.5"/><line x1="76.7" y1="20.0" x2="76.7" y2="180.0" stroke="#2980b9" stroke-width="1.5"/><line x1="83.3" y1="20.0" x2="83.3" y2="180.0" stroke="#2980b9" stroke-width="1.5"/><line x1="90.0" y1="20.0" x2="90.0" y2="180.0" stroke="#2980b9" stroke-width="1.5"/><line x1="96.7" y1="20.0" x2="96.7" y2="180.0" stroke="#2980b9" stroke-width="1.5"/><line x1="103.3" y1="20.0" x2="103.3" y2="180.0" stroke="#2980b9" stroke-width="1.5"/><line x1="110.0" y1="20.0" x2="110.0" y2="180.0" stroke="#2980b9" stroke-width="1.5"/><line x1="116.7" y1="20.0" x2="116.7" y2="180.0" stroke="#2980b9" stroke-width="1.5"/><line x1="123.3" y1="20.0" x2="123.3" y2="180.0" stroke="#2980b9" stroke-width="1.5"/><line x1="130.0" y1="20.0" x2="130.0" y2="180.0" stroke="#2980b9" stroke-width="1.5"/><line x1="136.7" y1="20.0" x2="136.7" y2="180.0" stroke="#2980b9" stroke-width="1.5"/><line x1="143.3" y1="20.0" x2="143.3" y2="180.0" stroke="#2980b9" stroke-width="1.5"/><line x1="150.0" y1="20.0" x2="150.0" y2="180.0" stroke="#2980b9" stroke-width="1.5"/><line x1="156.7" y1="20.0" x2="156.7" y2="180.0" stroke="#2980b9" stroke-width="1.5"/><line x1="163.3" y1="20.0" x2="163.3" y2="180.0" stroke="#2980b9" stroke-width="1.5"/><line x1="170.0" y1="20.0" x2="170.0" y2="180.0" stroke="#2980b9" stroke-width="1.5"/><line x1="176.7" y1="20.0" x2="176.7" y2="180.0" stroke="#2980b9" stroke-width="1.5"/><text x="6" y="194" font-family="sans-serif" font-size="9" fill="#57606a">parallel channel</text></svg>