<svg xmlns="http://www.w3.org/2000/svg" viewBox="0 0 200 200" width="200" height="200"><rect x="0" y="0" width="200" height="200" fill="#f6f8fa"/><rect x="8" y="8" width="184" height="184" fill="none" stroke="#d0d7de" stroke-dasharray="4 3"/><circle cx="31.4" cy="31.4" r="6.0" fill="#2980b9"/><circle cx="54.3" cy="31.4" r="6.0" fill="#2980b9"/><circle cx="77.1" cy="31.4" r="6.0" fill="#2980b9"/><circle cx="100.0" cy="31.4" r="6.0" fill="#2980b9"/><circle cx="122.9" cy="31.4" r="6.0" fill="#2980b9"/><circle cx="145.7" cy="31.4" r="6.0" fill="#2980b9"/><circle cx="168.6" cy="31.4" r="6.0" fill="#2980b9"/><circle cx="31.4" cy="54.3" r="6.0" fill="#2980b9"/><circle cx="54.3" cy="54.3" r="6.0" fill="#2980b9"/><circle cx="77.1" cy="54.3" r="6.0" fill="#2980b9"/><circle cx="100.0" cy="54.3" r="6.0" fill="#2980b9"/><circle cx="122.9" cy="54.3" r="6.0" fill="#2980b9"/><circle cx="145.7" cy="54.3" r="6.0" fill="#2980b9"/><circle cx="168.6" cy="54.3" r="6.0" fill="#2980b9"/><circle cx="31.4" cy="77.1" r="6.0" fill="#2980b9"/><circle cx="54.3" cy="77.1" r="6.0" fill="#2980b9"/><circle cx="77.1" cy="77.1" r="6.0" fill="#2980b9"/><circle cx="100.0" cy="77.1" r="6.0" fill="#2980b9"/><circle cx="122.9" cy="77.1" r="6.0" fill="#2980b9"/><circle cx="145.7" cy="77.1" r="6.0" fill="#2980b9"/><circle cx="168.6" cy="77.1" r="6.0" fill="#2980b9"/><circle cx="31.4" cy="100.0" r="6.0" fill="#2980b9"/><circle cx="54.3" cy="100.0" r="6.0" fill="#2980b9"/><circle cx="77.1" cy="100.0" r="6.0" fill="#2980b9"/><circle cx="100.0" cy="100.0" r="6.0" fill="#2980b9"/><circle cx="122.9" cy="100.0" r="6.0" fill="#2980b9"/><circle cx="145.7" cy="100.0" r="6.0" fill="#2980b9"/><circle cx="168.6" cy="100.0" r="6.0" fill="#2980b9"/><circle cx="31.4" cy="122.9" r="6.0" fill="#2980b9"/><circle cx="54.3" cy="122.9" r="6.0" fill="#2980b9"/><circle cx="77.1" cy="122.9" r="6.0" fill="#2980b9"/><circle cx="100.0" cy="122.9" r="6.0" fill="#2980b9"/><circle cx="122.9" cy="122.9" r="6.0" fill="#2980b9"/><circle cx="145.7" cy="122.9" r="6.0" fill="#2980b9"/><circle cx="168.6" cy="122.9" r="6.0" fill="#2980b9"/><circle cx="31.4" cy="145.7" r="6.0" fill="#2980b9"/><circle cx="54.3" cy="145.7" r="6.0" fill="#2980b9"/><circle cx="77.1" cy="145.7" r="6.0" fill="#2980b9"/><circle cx="100.0" cy="145.7" r="6.0" fill="#2980b9"/><circle cx="122.9" cy="145.7" r="6.0" fill="#2980b9"/><circle cx="145.7" cy="145.7" r="6.0" fill="#2980b9"/><circle cx="168.6" cy="145.7" r="6.0" fill="#2980b9"/><circle cx="31.4" cy="168.6" r="6.0" fill="#2980b9"/><circle cx="54.3" cy="168.6" r="6.0" fill="#2980b9"/><circle cx="77.1" cy="168.6" r="6.0" fill="#2980b9"/><circle cx="100.0" cy="168.6" r="6.0" fill="#2980b9"/><circle cx="122.9" cy="168.6" r="6.0" fill="#2980b9"/><circle cx="145.7" cy="168.6" r="6.0" fill="#2980b9"/><circle cx="168.6" cy="168.6" r="6.0" fill="#2980b9"/><text x="6" y="194" font-family="sans-serif" font-size="9" fill="#57606a">pin-fin array</text></svg>