<svg xmlns="http://www.w3.org/2000/svg" viewBox="0 0 200 200" width="200" height="200"><rect x="0" y="0" width="200" height="200" fill="#f6f8fa"/><rect x="8" y="8" width="184" height="184" fill="none" stroke="#d0d7de" stroke-dasharray="4 3"/><circle cx="28.9" cy="28.9" r="6.0" fill="#2980b9"/><circle cx="46.7" cy="28.9" r="6.0" fill="#2980b9"/><circle cx="64.4" cy="28.9" r="6.0" fill="#2980b9"/><circle cx="82.2" cy="28.9" r="6.0" fill="#2980b9"/><circle cx="100.0" cy="28.9" r="6.0" fill="#2980b9"/><circle cx="117.8" cy="28.9" r="6.0" fill="#2980b9"/><circle cx="135.6" cy="28.9" r="6.0" fill="#2980b9"/><circle cx="153.3" cy="28.9" r="6.0" fill="#2980b9"/><circle cx="171.1" cy="28.9" r="6.0" fill="#2980b9"/><circle cx="28.9" cy="46.7" r="6.0" fill="#2980b9"/><circle cx="46.7" cy="46.7" r="6.0" fill="#2980b9"/><circle cx="64.4" cy="46.7" r="6.0" fill="#2980b9"/><circle cx="82.2" cy="46.7" r="6.0" fill="#2980b9"/><circle cx="100.0" cy="46.7" r="6.0" fill="#2980b9"/><circle cx="117.8" cy="46.7" r="6.0" fill="#2980b9"/><circle cx="135.6" cy="46.7" r="6.0" fill="#2980b9"/><circle cx="153.3" cy="46.7" r="6.0" fill="#2980b9"/><circle cx="171.1" cy="46.7" r="6.0" fill="#2980b9"/><circle cx="28.9" cy="64.4" r="6.0" fill="#2980b9"/><circle cx="46.7" cy="64.4" r="6.0" fill="#2980b9"/><circle cx="64.4" cy="64.4" r="6.0" fill="#2980b9"/><circle cx="82.2" cy="64.4" r="6.0" fill="#2980b9"/><circle cx="100.0" cy="64.4" r="6.0" fill="#2980b9"/><circle cx="117.8" cy="64.4" r="6.0" fill="#2980b9"/><circle cx="135.6" cy="64.4" r="6.0" fill="#2980b9"/><circle cx="153.3" cy="64.4" r="6.0" fill="#2980b9"/><circle cx="171.1" cy="64.4" r="6.0" fill="#2980b9"/><circle cx="28.9" cy="82.2" r="6.0" fill="#2980b9"/><circle cx="46.7" cy="82.2" r="6.0" fill="#2980b9"/><circle cx="64.4" cy="82.2" r="6.0" fill="#2980b9"/><circle cx="82.2" cy="82.2" r="6.0" fill="#2980b9"/><circle cx="100.0" cy="82.2" r="6.0" fill="#2980b9"/><circle cx="117.8" cy="82.2" r="6.0" fill="#2980b9"/><circle cx="135.6" cy="82.2" r="6.0" fill="#2980b9"/><circle cx="153.3" cy="82.2" r="6.0" fill="#2980b9"/><circle cx="171.1" cy="82.2" r="6.0" fill="#2980b9"/><circle cx="28.9" cy="100.0" r="6.0" fill="#2980b9"/><circle cx="46.7" cy="100.0" r="6.0" fill="#2980b9"/><circle cx="64.4" cy="100.0" r="6.0" fill="#2980b9"/><circle cx="82.2" cy="100.0" r="6.0" fill="#2980b9"/><circle cx="100.0" cy="100.0" r="6.0" fill="#2980b9"/><circle cx="117.8" cy="100.0" r="6.0" fill="#2980b9"/><circle cx="135.6" cy="100.0" r="6.0" fill="#2980b9"/><circle cx="153.3" cy="100.0" r="6.0" fill="#2980b9"/><circle cx="171.1" cy="100.0" r="6.0" fill="#2980b9"/><circle cx="28.9" cy="117.8" r="6.0" fill="#2980b9"/><circle cx="46.7" cy="117.8" r="6.0" fill="#2980b9"/><circle cx="64.4" cy="117.8" r="6.0" fill="#2980b9"/><circle cx="82.2" cy="117.8" r="6.0" fill="#2980b9"/><circle cx="100.0" cy="117.8" r="6.0" fill="#2980b9"/><circle cx="117.8" cy="117.8" r="6.0" fill="#2980b9"/><circle cx="135.6" cy="117.8" r="6.0" fill="#2980b9"/><circle cx="153.3" cy="117.8" r="6.0" fill="#2980b9"/><circle cx="171.1" cy="117.8" r="6.0" fill="#2980b9"/><circle cx="28.9" cy="135.6" r="6.0" fill="#2980b9"/><circle cx="46.7" cy="135.6" r="6.0" fill="#2980b9"/><circle cx="64.4" cy="135.6" r="6.0" fill="#2980b9"/><circle cx="82.2" cy="135.6" r="6.0" fill="#2980b9"/><circle cx="100.0" cy="135.6" r="6.0" fill="#2980b9"/><circle cx="117.8" cy="135.6" r="6.0" fill="#2980b9"/><circle cx="135.6" cy="135.6" r="6.0" fill="#2980b9"/><circle cx="153.3" cy="135.6" r="6.0" fill="#2980b9"/><circle cx="171.1" cy="135.6" r="6.0" fill="#2980b9"/><circle cx="28.9" cy="153.3" r="6.0" fill="#2980b9"/><circle cx="46.7" cy="153.3" r="6.0" fill="#2980b9"/><circle cx="64.4" cy="153.3" r="6.0" fill="#2980b9"/><circle cx="82.2" cy="153.3" r="6.0" fill="#2980b9"/><circle cx="100.0" cy="153.3" r="6.0" fill="#2980b9"/><circle cx="117.8" cy="153.3" r="6.0" fill="#2980b9"/><circle cx="135.6" cy="153.3" r="6.0" fill="#2980b9"/><circle cx="153.3" cy="153.3" r="6.0" fill="#2980b9"/><circle cx="171.1" cy="153.3" r="6.0" fill="#2980b9"/><circle cx="28.9" cy="171.1" r="6.0" fill="#2980b9"/><circle cx="46.7" cy="171.1" r="6.0" fill="#2980b9"/><circle cx="64.4" cy="171.1" r="6.0" fill="#2980b9"/><circle cx="82.2" cy="171.1" r="6.0" fill="#2980b9"/><circle cx="100.0" cy="171.1" r="6.0" fill="#2980b9"/><circle cx="117.8" cy="171.1" r="6.0" fill="#2980b9"/><circle cx="135.6" cy="171.1" r="6.0" fill="#2980b9"/><circle cx="153.3" cy="171.1" r="6.0" fill="#2980b9"/><circle cx="171.1" cy="171.1" r="6.0" fill="#2980b9"/><text x="6" y="194" font-family="sans-serif" font-size="9" fill="#57606a">pin-fin array</text></svg>